<svg xmlns="http://www.w3.org/2000/svg" viewBox="0 0 50 50"><defs><style>.cls-1{fill:#febe15;}.cls-2{fill:#010101;opacity:0.13;}.cls-3{fill:#523a1d;}.cls-4{fill:#69a8db;}.cls-5{fill:#1a9155;}.cls-6{fill:#fff;}.cls-7{fill:#a28467;}</style></defs><title>Recurso 18</title><g id="Capa_2" data-name="Capa 2"><g id="Layer_1" data-name="Layer 1"><path class="cls-1" d="M50,25a25.05,25.05,0,0,1-.58,5.38s0,.05,0,.08l-.15.65A25,25,0,0,1,30.89,49.3h0l-.74.16A24.73,24.73,0,0,1,25,50,25,25,0,1,1,50,25Z"/><path class="cls-2" d="M49.4,30.46l-.15.65A25,25,0,0,1,30.89,49.3h0L18,36.39a.1.1,0,0,0,.05,0h0a.46.46,0,0,0,.23.06H31.71a.48.48,0,0,0,.17-.93,19.91,19.91,0,0,0-6.42-1.24V30.39a.35.35,0,0,0,0-.14,9.8,9.8,0,0,0,8.37-6c0-.07.06-.15.1-.23A9.78,9.78,0,0,0,28.69,11.5l.38-1A.48.48,0,0,0,29,10Z"/><path class="cls-3" d="M27.65,12.88a8.13,8.13,0,1,0,4.67,10.5A8.15,8.15,0,0,0,27.65,12.88Zm3.63,4.67a7.52,7.52,0,0,1,.49,1.55l-1.69-.64a8.07,8.07,0,0,0-.2-3A7.41,7.41,0,0,1,31.28,17.55ZM27.74,14a3.54,3.54,0,0,1,1.41,2.76,8.56,8.56,0,0,1,0,1.34l-2.61-1Zm-6.38,4.66a12.63,12.63,0,0,1,1.11-2.1l2.84,1.09-.85,2.2Zm2.76,2.08-.85,2.2-2.83-1.09A13.31,13.31,0,0,1,21,19.56Zm.89.35,3.1,1.19A13.74,13.74,0,0,1,27,24.37l-2.84-1.09Zm.35-.9L26.2,18,29,19.08a13.71,13.71,0,0,1-.6,2.3Zm1.48-6.54-1.19,3.11-2.61-1a7.93,7.93,0,0,1,.9-1A3.59,3.59,0,0,1,26.84,13.65Zm-2.61-.31a8.24,8.24,0,0,0-2.12,2.06l-1.67-.64A7.13,7.13,0,0,1,24.23,13.34Zm-4.6,2.13,1.92.74a15.39,15.39,0,0,0-1.08,2.1l-2.21-.85A7.13,7.13,0,0,1,19.63,15.47Zm-1.44,7.91a7.13,7.13,0,0,1-.48-1.55l1.68.65a8,8,0,0,0,.21,3A7.23,7.23,0,0,1,18.19,23.38Zm1.33-1.88-1.94-.75a7.32,7.32,0,0,1,.32-2.4l2.22.86A15.44,15.44,0,0,0,19.52,21.5Zm2.22,5.44a3.56,3.56,0,0,1-1.41-2.77,7.49,7.49,0,0,1,0-1.34l2.6,1Zm.89.34,1.2-3.1,2.6,1a7.93,7.93,0,0,1-.9,1A3.53,3.53,0,0,1,22.63,27.28Zm5-.27a6.94,6.94,0,0,1-2.43.6,8.22,8.22,0,0,0,2.15-2.07l1.67.64A6.47,6.47,0,0,1,27.65,27Zm2.21-1.54-1.94-.75A15.44,15.44,0,0,0,29,22.62l2.22.85A6.91,6.91,0,0,1,29.86,25.47Zm1.71-2.89-2.22-.86a14.19,14.19,0,0,0,.6-2.28l1.94.74A6.76,6.76,0,0,1,31.57,22.58Z"/><path class="cls-4" d="M29,26.18a6.47,6.47,0,0,1-1.39.83,6.94,6.94,0,0,1-2.43.6,8.22,8.22,0,0,0,2.15-2.07Z"/><path class="cls-4" d="M30.08,18.46a8.07,8.07,0,0,0-.2-3,7.41,7.41,0,0,1,1.4,2.07,7.52,7.52,0,0,1,.49,1.55Z"/><path class="cls-4" d="M31.89,20.18a6.76,6.76,0,0,1-.32,2.4l-2.22-.86a14.19,14.19,0,0,0,.6-2.28Z"/><path class="cls-4" d="M31.23,23.47a6.91,6.91,0,0,1-1.37,2l-1.94-.75A15.44,15.44,0,0,0,29,22.62Z"/><path class="cls-4" d="M26.43,25.18a7.93,7.93,0,0,1-.9,1,3.53,3.53,0,0,1-2.9,1.11l1.2-3.1Z"/><path class="cls-5" d="M28.11,22.28A13.74,13.74,0,0,1,27,24.37l-2.84-1.09L25,21.09Z"/><path class="cls-5" d="M29,19.08a13.71,13.71,0,0,1-.6,2.3l-3.08-1.19L26.2,18Z"/><path class="cls-6" d="M29.15,18.1l-2.61-1,1.2-3.1a3.54,3.54,0,0,1,1.41,2.76A8.56,8.56,0,0,1,29.15,18.1Z"/><path class="cls-4" d="M26.84,13.65l-1.19,3.11-2.61-1a7.93,7.93,0,0,1,.9-1A3.59,3.59,0,0,1,26.84,13.65Z"/><path class="cls-7" d="M25.31,17.65l-.85,2.2-3.1-1.19a12.63,12.63,0,0,1,1.11-2.1Z"/><path class="cls-4" d="M24.12,20.74l-.85,2.2-2.83-1.09A13.31,13.31,0,0,1,21,19.56Z"/><path class="cls-4" d="M22.93,23.83l-1.19,3.11a3.56,3.56,0,0,1-1.41-2.77,7.49,7.49,0,0,1,0-1.34Z"/><path class="cls-6" d="M19.6,25.45a7.23,7.23,0,0,1-1.41-2.07,7.13,7.13,0,0,1-.48-1.55l1.68.65A8,8,0,0,0,19.6,25.45Z"/><path class="cls-4" d="M20.12,19.21a15.44,15.44,0,0,0-.6,2.29l-1.94-.75a7.32,7.32,0,0,1,.32-2.4Z"/><path class="cls-4" d="M21.55,16.21a15.39,15.39,0,0,0-1.08,2.1l-2.21-.85a7.13,7.13,0,0,1,1.37-2Z"/><path class="cls-6" d="M24.23,13.34a8.24,8.24,0,0,0-2.12,2.06l-1.67-.64A7.13,7.13,0,0,1,24.23,13.34Z"/><path class="cls-3" d="M33.7,16.48A9.64,9.64,0,0,0,32,13.86a9.78,9.78,0,0,0-3.3-2.36l.38-1a.48.48,0,0,0-.9-.34l-.53,1.39a.48.48,0,0,0,.27.63,8.75,8.75,0,0,1,3.29,2.2,8.93,8.93,0,0,1,1.63,2.46,8.82,8.82,0,0,1,.23,6.6l-.06.17a8.88,8.88,0,0,1-11.44,5.09.49.49,0,0,0-.62.27.5.5,0,0,0,.28.63,9.87,9.87,0,0,0,2.73.61l.58,0a.53.53,0,0,0,0,.12v3.93h-.05a19.69,19.69,0,0,0-5.53,1l-.83.29a.49.49,0,0,0-.31.54.49.49,0,0,0,.23.33h0a.48.48,0,0,0,.23.07H31.71a.49.49,0,0,0,.48-.4.49.49,0,0,0-.31-.54,19.91,19.91,0,0,0-6.42-1.24V30.39a.35.35,0,0,0,0-.14,9.8,9.8,0,0,0,8.37-6c0-.07.06-.15.1-.23A9.71,9.71,0,0,0,33.7,16.48ZM26.78,35.35l.28,0c.18,0,.35,0,.52.06l.22,0,.35.05H21.82a17.8,17.8,0,0,1,3.56-.27C25.85,35.27,26.31,35.3,26.78,35.35Z"/><path class="cls-7" d="M28.14,35.53H21.82A18.13,18.13,0,0,1,28.14,35.53Z"/></g></g></svg>