<svg xmlns="http://www.w3.org/2000/svg" viewBox="0 0 50 50"><defs><style>.cls-1{fill:#5b9b5e;}.cls-2{fill:#503f17;}.cls-3,.cls-6{fill:#010101;}.cls-4{fill:#fff;}.cls-5{fill:#818181;}.cls-6{opacity:0.15;}</style></defs><title>Recurso 9</title><g id="Capa_2" data-name="Capa 2"><g id="Layer_1" data-name="Layer 1"><path class="cls-1" d="M50,25c0,.38,0,.75,0,1.12s0,.71-.07,1.06A25,25,0,0,1,26.1,50c-.36,0-.73,0-1.1,0h-.06A25,25,0,1,1,50,25Z"/><path class="cls-2" d="M39.4,17.12v17a1.07,1.07,0,0,1-1.07,1.08H26.25a1.22,1.22,0,0,1-2.39,0H11.79a1.13,1.13,0,0,1-.67-.23,1.09,1.09,0,0,1-.41-.85v-17A1.08,1.08,0,0,1,11.79,16h2c-.42.16-.84.33-1.25.53a.65.65,0,0,0-.35.55v17a.35.35,0,0,0,.53.32,13.73,13.73,0,0,1,12,0,.41.41,0,0,0,.18.05.49.49,0,0,0,.14,0,.45.45,0,0,0,.32,0,13.73,13.73,0,0,1,12,0,.41.41,0,0,0,.19.05.34.34,0,0,0,.33-.37v-17a.66.66,0,0,0-.34-.55c-.41-.2-.83-.37-1.25-.53h2a1.08,1.08,0,0,1,.86.43A1.1,1.1,0,0,1,39.4,17.12Z"/><path class="cls-3" d="M24.74,16.94a14.09,14.09,0,0,0-2.42-.9,13.74,13.74,0,0,0-7.2,0,14.09,14.09,0,0,0-2.42.9.25.25,0,0,0-.11.18V34.06a14.12,14.12,0,0,1,12.26,0V17.12A.23.23,0,0,0,24.74,16.94ZM24.22,33.1a14.82,14.82,0,0,0-11,0V17.39a13.13,13.13,0,0,1,11,0Z"/><path class="cls-4" d="M24.22,17.39V33.1a14.82,14.82,0,0,0-11,0V17.39a13.13,13.13,0,0,1,11,0Z"/><path class="cls-3" d="M37.42,16.94A14.09,14.09,0,0,0,35,16a13.74,13.74,0,0,0-7.2,0,13.5,13.5,0,0,0-2.42.9.25.25,0,0,0-.11.18V34.06a14.12,14.12,0,0,1,12.26,0V17.12A.23.23,0,0,0,37.42,16.94ZM36.9,33.1a14.82,14.82,0,0,0-11,0V17.39a13.13,13.13,0,0,1,11,0Z"/><path class="cls-4" d="M36.9,17.39V33.1a14.82,14.82,0,0,0-11,0V17.39a13.13,13.13,0,0,1,11,0Z"/><path class="cls-3" d="M14.53,29.78a.42.42,0,0,1-.18-.8,10.55,10.55,0,0,1,8.73,0,.43.43,0,0,1,.21.56.41.41,0,0,1-.55.2,9.72,9.72,0,0,0-8,0A.38.38,0,0,1,14.53,29.78Z"/><path class="cls-3" d="M14.53,26.63a.42.42,0,0,1-.18-.8,10.55,10.55,0,0,1,8.73,0,.43.43,0,0,1,.21.56.42.42,0,0,1-.55.2,9.72,9.72,0,0,0-8,0A.38.38,0,0,1,14.53,26.63Z"/><path class="cls-3" d="M14.53,23.48a.42.42,0,0,1-.18-.8,10.55,10.55,0,0,1,8.73,0,.42.42,0,0,1,.21.55.41.41,0,0,1-.55.21,9.72,9.72,0,0,0-8,0A.38.38,0,0,1,14.53,23.48Z"/><path class="cls-3" d="M14.53,20.33a.42.42,0,0,1-.18-.8,10.55,10.55,0,0,1,8.73,0,.42.42,0,0,1,.21.55.41.41,0,0,1-.55.21,9.72,9.72,0,0,0-8,0A.38.38,0,0,1,14.53,20.33Z"/><path class="cls-3" d="M27.21,29.78A.42.42,0,0,1,27,29a10.55,10.55,0,0,1,8.73,0,.43.43,0,0,1,.21.56.41.41,0,0,1-.55.2,9.72,9.72,0,0,0-8,0A.38.38,0,0,1,27.21,29.78Z"/><path class="cls-3" d="M27.21,26.63a.42.42,0,0,1-.18-.8,10.55,10.55,0,0,1,8.73,0,.43.43,0,0,1,.21.56.42.42,0,0,1-.55.2,9.72,9.72,0,0,0-8,0A.38.38,0,0,1,27.21,26.63Z"/><path class="cls-3" d="M27.21,23.48a.42.42,0,0,1-.18-.8,10.55,10.55,0,0,1,8.73,0,.42.42,0,0,1,.21.55.41.41,0,0,1-.55.21,9.72,9.72,0,0,0-8,0A.38.38,0,0,1,27.21,23.48Z"/><path class="cls-3" d="M27.21,20.33a.42.42,0,0,1-.18-.8,10.55,10.55,0,0,1,8.73,0,.42.42,0,0,1,.21.55.41.41,0,0,1-.55.21,9.72,9.72,0,0,0-8,0A.38.38,0,0,1,27.21,20.33Z"/><path class="cls-5" d="M37.94,17.12v17a.34.34,0,0,1-.33.37.41.41,0,0,1-.19-.05,13.73,13.73,0,0,0-12,0,.42.42,0,0,1-.31,0,.7.7,0,0,1-.14,0,.41.41,0,0,1-.19-.05,13.73,13.73,0,0,0-12,0,.35.35,0,0,1-.53-.32v-17a.65.65,0,0,1,.35-.55c.41-.2.83-.37,1.25-.53h1.35a14.09,14.09,0,0,0-2.42.9.25.25,0,0,0-.11.18V34.06a14.12,14.12,0,0,1,12.26,0V17.12a.23.23,0,0,0-.11-.18,14.09,14.09,0,0,0-2.42-.9H27.8a13.5,13.5,0,0,0-2.42.9.25.25,0,0,0-.11.18V34.06a14.12,14.12,0,0,1,12.26,0V17.12a.23.23,0,0,0-.11-.18A14.09,14.09,0,0,0,35,16h1.34c.43.16.85.33,1.26.53A.66.66,0,0,1,37.94,17.12Z"/><path class="cls-6" d="M49.9,27.18A25,25,0,0,1,26.1,50l-15-15a1.08,1.08,0,0,0,.67.24H23.86a1.22,1.22,0,0,0,2.39,0H38.33a1.07,1.07,0,0,0,1.07-1.08v-17a1.1,1.1,0,0,0-.21-.65Z"/></g></g></svg>