<svg xmlns="http://www.w3.org/2000/svg" viewBox="0 0 50 50"><defs><style>.cls-1{fill:#9a66a4;}.cls-2,.cls-5{fill:#010101;}.cls-3{fill:#fff;}.cls-4{fill:#f15757;}.cls-5{opacity:0.15;}</style></defs><title>Recurso 10</title><g id="Capa_2" data-name="Capa 2"><g id="Layer_1" data-name="Layer 1"><path class="cls-1" d="M50,25c0,.28,0,.55,0,.83s0,.73-.06,1.09A25,25,0,0,1,26.2,50c-.38,0-.77,0-1.16,0h0A25,25,0,1,1,50,25Z"/><path class="cls-2" d="M33.59,15.36a.63.63,0,0,1,.63-.63h.92a.63.63,0,0,1,.63.63v.91a.64.64,0,0,1-.63.64h-.92a.64.64,0,0,1-.63-.64Zm-3.84,0a.63.63,0,0,1,.63-.63h.92a.63.63,0,0,1,.63.63v.91a.64.64,0,0,1-.63.64h-.92a.64.64,0,0,1-.63-.64Zm-3.83,0a.63.63,0,0,1,.63-.63h.91a.64.64,0,0,1,.64.63v.91a.64.64,0,0,1-.64.64h-.91a.64.64,0,0,1-.63-.64Zm-3.84,0a.63.63,0,0,1,.63-.63h.92a.63.63,0,0,1,.63.63v.91a.64.64,0,0,1-.63.64h-.92a.64.64,0,0,1-.63-.64Zm-3.83,0a.63.63,0,0,1,.63-.63h.91a.64.64,0,0,1,.64.63v.91a.64.64,0,0,1-.64.64h-.91a.64.64,0,0,1-.63-.64Zm-3.84,0a.63.63,0,0,1,.63-.63H16a.63.63,0,0,1,.63.63v.91a.64.64,0,0,1-.63.64H15a.64.64,0,0,1-.63-.64Zm2.18,20.22a.63.63,0,0,1-.63.63H15a.63.63,0,0,1-.63-.63v-.92A.63.63,0,0,1,15,34H16a.63.63,0,0,1,.63.63Zm3.84,0a.64.64,0,0,1-.64.63h-.91a.63.63,0,0,1-.63-.63v-.92a.63.63,0,0,1,.63-.63h.91a.64.64,0,0,1,.64.63Zm3.83,0a.63.63,0,0,1-.63.63h-.92a.63.63,0,0,1-.63-.63v-.92a.63.63,0,0,1,.63-.63h.92a.63.63,0,0,1,.63.63Zm3.84,0a.64.64,0,0,1-.64.63h-.91a.63.63,0,0,1-.63-.63v-.92a.63.63,0,0,1,.63-.63h.91a.64.64,0,0,1,.64.63Zm3.83,0a.63.63,0,0,1-.63.63h-.92a.64.64,0,0,1-.63-.63v-.92a.63.63,0,0,1,.63-.63h.92a.63.63,0,0,1,.63.63Zm3.84,0a.63.63,0,0,1-.63.63h-.92a.63.63,0,0,1-.63-.63v-.92a.63.63,0,0,1,.63-.63h.92a.63.63,0,0,1,.63.63Zm.77-3.68a1.31,1.31,0,0,1-.92,1.25H14.56a1.31,1.31,0,0,1-.92-1.25V19.11A1.33,1.33,0,0,1,15,17.78H35.21a1.34,1.34,0,0,1,1.33,1.33Zm.77-17.6a1.19,1.19,0,0,0-.92-.45H13.79A1.17,1.17,0,0,0,12.62,15V35.91a1.18,1.18,0,0,0,.44.92,1.15,1.15,0,0,0,.73.25h22.6a1.17,1.17,0,0,0,1.17-1.17V15A1.14,1.14,0,0,0,37.31,14.3Z"/><path class="cls-3" d="M35.21,17.78H15a1.33,1.33,0,0,0-1.33,1.33V31.9a1.31,1.31,0,0,0,.92,1.25H35.62a1.31,1.31,0,0,0,.92-1.25V19.11A1.34,1.34,0,0,0,35.21,17.78Zm-3.77,8.58-10.8,4.69a.93.93,0,0,1-1.3-.85V20.81a.93.93,0,0,1,1.3-.86l10.8,4.7A.94.94,0,0,1,31.44,26.36Z"/><rect class="cls-3" x="33.59" y="34.03" width="2.18" height="2.18" rx="0.63"/><rect class="cls-3" x="29.75" y="34.03" width="2.18" height="2.18" rx="0.63"/><rect class="cls-3" x="25.92" y="34.03" width="2.18" height="2.18" rx="0.63"/><rect class="cls-3" x="22.08" y="34.03" width="2.18" height="2.18" rx="0.63"/><rect class="cls-3" x="18.25" y="34.03" width="2.18" height="2.18" rx="0.63"/><rect class="cls-3" x="14.41" y="34.03" width="2.18" height="2.18" rx="0.63"/><rect class="cls-3" x="14.41" y="14.73" width="2.18" height="2.18" rx="0.63"/><rect class="cls-3" x="18.25" y="14.73" width="2.18" height="2.18" rx="0.63"/><rect class="cls-3" x="22.08" y="14.73" width="2.18" height="2.18" rx="0.63"/><rect class="cls-3" x="25.92" y="14.73" width="2.18" height="2.18" rx="0.63"/><rect class="cls-3" x="29.75" y="14.73" width="2.18" height="2.18" rx="0.63"/><rect class="cls-3" x="33.59" y="14.73" width="2.18" height="2.18" rx="0.63"/><path class="cls-4" d="M31.44,26.36l-10.8,4.69a.93.93,0,0,1-1.3-.85V20.81a.93.93,0,0,1,1.3-.86l10.8,4.7A.94.94,0,0,1,31.44,26.36Z"/><path class="cls-5" d="M49.92,26.92A25,25,0,0,1,26.2,50L13.06,36.83a1.15,1.15,0,0,0,.73.25h22.6a1.17,1.17,0,0,0,1.17-1.17V15a1.12,1.12,0,0,0-.25-.72Z"/></g></g></svg>