<svg xmlns="http://www.w3.org/2000/svg" viewBox="0 0 50 50"><defs><style>.cls-1{fill:#42829b;}.cls-2{fill:#fcb216;}.cls-3{fill:#f47a20;}.cls-4{fill:#ffd766;}.cls-5{opacity:0.15;}.cls-6{fill:#010101;}</style></defs><title>Recurso 11</title><g id="Capa_2" data-name="Capa 2"><g id="Layer_1" data-name="Layer 1"><path class="cls-1" d="M50,25a24,24,0,0,1-.34,4.09c0,.28-.09.55-.15.83a25,25,0,0,1-22.07,20c-.34,0-.69.06-1,.08s-.93,0-1.4,0A25,25,0,1,1,50,25Z"/><path class="cls-2" d="M40.09,20.78a2.13,2.13,0,0,0-.37-.66l0,0a1.87,1.87,0,0,0-1.43-.63H30.32a.94.94,0,0,1-.89-.65L27,11.25a1.79,1.79,0,0,0-.37-.66,1.93,1.93,0,0,0-2.67-.23,2,2,0,0,0-.61.89l-2.45,7.56a.94.94,0,0,1-.89.65H12a1.91,1.91,0,0,0-1.19,3.42l.06.05,6.42,4.66a1,1,0,0,1,.35,1.05l-.27.81L15.22,36.2a1.89,1.89,0,0,0,.63,2.09l.07.05a1.9,1.9,0,0,0,1.13.38,1.85,1.85,0,0,0,1.12-.38l6.43-4.67a.93.93,0,0,1,1.1,0l6.43,4.67a1.85,1.85,0,0,0,1.12.38,1.94,1.94,0,0,0,1.83-2.52l-2.46-7.56A1,1,0,0,1,33,27.59l6.42-4.66A1.91,1.91,0,0,0,40.09,20.78Zm-1.28,1.36L32.39,26.8A1.92,1.92,0,0,0,31.7,29l2.45,7.55a.92.92,0,0,1-.35,1,.94.94,0,0,1-.55.19,1,1,0,0,1-.55-.19l-6.42-4.67a2,2,0,0,0-2.26,0L17.6,37.55a1,1,0,0,1-.55.19.93.93,0,0,1-.56-.19,1,1,0,0,1-.18-.17.91.91,0,0,1-.16-.88l2-6.28L18.6,29a1.92,1.92,0,0,0-.69-2.15l-6.43-4.66L11.36,22a.94.94,0,0,1,.68-1.6H20a1.91,1.91,0,0,0,1.82-1.32l2.45-7.55a.91.91,0,0,1,.38-.5,1,1,0,0,1,1.16.09.84.84,0,0,1,.25.41l2.46,7.55a1.9,1.9,0,0,0,1.82,1.32h7.94a.89.89,0,0,1,.67.28,1,1,0,0,1,.23.37A.93.93,0,0,1,38.81,22.14Z"/><path class="cls-3" d="M39.16,21.08a.92.92,0,0,0-.9-.65H30.32a1.9,1.9,0,0,1-1.82-1.32L26,11.56a.91.91,0,0,0-.89-.65.93.93,0,0,0-.9.65L21.8,19.11A1.91,1.91,0,0,1,20,20.43H12a.95.95,0,0,0-.56,1.71l6.43,4.66A1.92,1.92,0,0,1,18.6,29L16.15,36.5a.92.92,0,0,0,.34,1,.93.93,0,0,0,.56.19,1,1,0,0,0,.55-.19L24,32.88a2,2,0,0,1,2.26,0l6.42,4.67a1,1,0,0,0,.55.19.94.94,0,0,0,.55-.19.92.92,0,0,0,.35-1L31.7,29a1.92,1.92,0,0,1,.69-2.15l6.42-4.66A.93.93,0,0,0,39.16,21.08ZM35.33,23l-4.79,3.47a1.43,1.43,0,0,0-.52,1.6l1.83,5.62a.69.69,0,0,1-.26.79.67.67,0,0,1-.41.13.64.64,0,0,1-.41-.14L26,31a1.44,1.44,0,0,0-1.68,0l-4.78,3.47a.66.66,0,0,1-.41.14.68.68,0,0,1-.42-.14.67.67,0,0,1-.25-.78l1.82-5.62a1.41,1.41,0,0,0-.51-1.6L15,23a.69.69,0,0,1-.25-.79.68.68,0,0,1,.66-.49h5.91a1.4,1.4,0,0,0,1.36-1l1.83-5.62a.7.7,0,0,1,1.34,0l1.83,5.62a1.41,1.41,0,0,0,1.35,1h5.92a.67.67,0,0,1,.66.49A.69.69,0,0,1,35.33,23Z"/><path class="cls-4" d="M35.33,23l-4.79,3.47a1.43,1.43,0,0,0-.52,1.6l1.83,5.62a.69.69,0,0,1-.26.79.67.67,0,0,1-.41.13.64.64,0,0,1-.41-.14L26,31a1.44,1.44,0,0,0-1.68,0l-4.78,3.47a.66.66,0,0,1-.41.14.68.68,0,0,1-.42-.14.67.67,0,0,1-.25-.78l1.82-5.62a1.41,1.41,0,0,0-.51-1.6L15,23a.69.69,0,0,1-.25-.79.68.68,0,0,1,.66-.49h5.91a1.4,1.4,0,0,0,1.36-1l1.83-5.62a.7.7,0,0,1,1.34,0l1.83,5.62a1.41,1.41,0,0,0,1.35,1h5.92a.67.67,0,0,1,.66.49A.69.69,0,0,1,35.33,23Z"/><g class="cls-5"><path class="cls-6" d="M49.51,29.92a25,25,0,0,1-22.07,20L15.85,38.29l.07.05a1.9,1.9,0,0,0,2.25,0l6.43-4.67a.93.93,0,0,1,1.1,0l6.43,4.67a1.84,1.84,0,0,0,1.12.37,1.93,1.93,0,0,0,1.83-2.51l-2.46-7.55A.94.94,0,0,1,33,27.59l6.42-4.66a1.91,1.91,0,0,0,.7-2.15,1.94,1.94,0,0,0-.37-.66Z"/><path class="cls-6" d="M17.68,28.64a1,1,0,0,0-.35-1.05l-6.42-4.66-.06-.05,6.56,6.57Z"/><path class="cls-6" d="M29.43,18.81a.94.94,0,0,0,.89.65h5.15L26.6,10.59a1.79,1.79,0,0,1,.37.66Z"/></g></g></g></svg>